<svg width="298" height="53" viewBox="0 0 298 53" fill="none" xmlns="http://www.w3.org/2000/svg">
<path d="M10.3135 44.2511C7.36787 44.2511 5.11529 43.3414 3.55581 41.522C2.02521 39.7027 1.17328 37.2046 1 34.0279L5.33188 32.8583C5.47627 35.1109 5.90946 36.9303 6.63145 38.3165C7.3823 39.7027 8.60969 40.3958 10.3135 40.3958C11.5842 40.3958 12.5372 40.0492 13.1726 39.3561C13.8368 38.6341 14.1689 37.6089 14.1689 36.2805C14.1689 34.8365 13.8657 33.638 13.2592 32.685C12.6528 31.732 11.6853 30.6779 10.3569 29.5227L4.46551 24.3245C3.28146 23.2848 2.41508 22.173 1.86638 20.9889C1.34655 19.776 1.08664 18.3032 1.08664 16.5704C1.08664 14.0002 1.82306 12.0075 3.2959 10.5924C4.76874 9.17733 6.77584 8.46979 9.31721 8.46979C12.0896 8.46979 14.1833 9.20621 15.5984 10.679C17.0135 12.1519 17.8654 14.4333 18.1542 17.5234L13.9956 18.6497C13.8513 16.5993 13.4469 15.0253 12.7827 13.928C12.1474 12.8017 10.9922 12.2385 9.31721 12.2385C8.07538 12.2385 7.12239 12.5706 6.45817 13.2349C5.79395 13.8702 5.46184 14.8232 5.46184 16.0939C5.46184 17.1336 5.63511 18.0143 5.98166 18.7363C6.32821 19.4295 6.92024 20.137 7.75773 20.859L13.6924 26.0572C15.223 27.4145 16.4359 28.8874 17.3312 30.4757C18.2553 32.0641 18.7174 33.869 18.7174 35.8906C18.7174 38.4608 17.9377 40.4968 16.3782 41.9986C14.8187 43.5003 12.7971 44.2511 10.3135 44.2511ZM22.5146 8.77302H27.4096V25.3208L35.4669 8.77302H40.0154L33.0844 24.2378L41.1416 43.8613H36.3766L29.6622 27.4001L27.4096 31.4721V43.8613H22.5146V8.77302ZM44.2224 8.77302H49.0307V43.8613H44.2224V8.77302ZM54.9675 8.77302H59.7758V43.8613H54.9675V8.77302ZM65.4526 8.77302H68.7885L78.7519 32.0785V8.77302H82.8238V43.8613H79.7049L69.6116 19.906V43.8613H65.4526V8.77302ZM96.6994 44.2944C93.5229 44.2944 91.227 43.2981 89.8117 41.3055C88.3964 39.2839 87.6891 36.2949 87.6891 32.3385V20.5991C87.6891 17.8844 87.9632 15.6607 88.5121 13.928C89.0895 12.1663 90.0574 10.8234 91.4145 9.89931C92.8007 8.9463 94.6925 8.46979 97.0893 8.46979C100.324 8.46979 102.648 9.29285 104.064 10.939C105.507 12.5851 106.23 15.1698 106.23 18.693V19.9926H101.638V18.9096C101.638 17.2346 101.537 15.9495 101.334 15.0542C101.132 14.1301 100.699 13.437 100.035 12.9749C99.3994 12.5129 98.4463 12.2818 97.1759 12.2818C95.8188 12.2818 94.8076 12.5995 94.1436 13.2349C93.4796 13.8413 93.0464 14.6644 92.844 15.704C92.6707 16.7437 92.5841 18.1299 92.5841 19.8626V32.8583C92.5841 35.5441 92.9015 37.479 93.5371 38.663C94.2011 39.8182 95.4573 40.3958 97.3058 40.3958C99.1252 40.3958 100.367 39.7604 101.031 38.4897C101.724 37.2191 102.071 35.1831 102.071 32.3818V29.9559H97.6091V26.4904H106.489V43.8613H103.414L102.937 39.8326C101.84 42.8072 99.7608 44.2944 96.6994 44.2944Z" fill="#060D10" stroke="#060D10"/>
<path d="M154.298 42.8528C153.829 41.8818 152.762 41.3428 151.294 41.3351C150.4 41.3304 149.398 41.5252 148.393 41.8921L138.72 21.8422L145.796 7.17511C145.797 7.26985 145.798 7.36552 145.799 7.46373C145.806 8.37997 145.814 9.32729 146.127 10.2151C146.363 10.8841 146.799 11.3875 147.386 11.6712C147.387 11.6713 147.387 11.6713 147.387 11.6713C147.714 11.8288 148.081 11.9158 148.479 11.9292C149.745 11.9725 151.866 11.4633 152.165 9.91308C152.497 8.19326 150.605 7.08753 149.797 6.61543L149.694 6.55558C149.054 6.18203 148.392 5.79566 147.875 5.28555C147.721 5.13373 147.585 4.97012 147.468 4.796L148.219 3.23909C148.593 2.46392 148.267 1.52896 147.492 1.15496C146.717 0.780949 145.782 1.10735 145.408 1.88252L143.957 4.89028C143.767 5.28405 143.758 5.71883 143.897 6.10069L137.51 19.3364L131.124 6.10069C131.263 5.71883 131.254 5.28416 131.064 4.89028L129.613 1.88252C129.239 1.10735 128.304 0.780949 127.529 1.15496C126.754 1.52896 126.427 2.46392 126.801 3.23909L127.552 4.796C127.435 4.97012 127.3 5.13373 127.146 5.28555C126.629 5.79566 125.967 6.18203 125.326 6.55558L125.224 6.61543C124.416 7.08753 122.524 8.19326 122.856 9.91308C123.155 11.4633 125.275 11.9725 126.542 11.9292C126.94 11.9158 127.307 11.8288 127.634 11.6713C127.634 11.6713 127.634 11.6713 127.634 11.6713C128.222 11.3876 128.657 10.8841 128.893 10.2151C129.207 9.32718 129.214 8.37985 129.222 7.46373C129.222 7.36552 129.223 7.26985 129.224 7.17511L136.301 21.8422L126.627 41.8921C125.623 41.5251 124.621 41.3304 123.727 41.3351C122.258 41.3427 121.191 41.8817 120.723 42.8528C120.254 43.8239 120.496 44.9945 121.404 46.1487C121.897 46.7759 122.57 47.3715 123.357 47.8889L122.889 51.3527C122.868 51.5083 122.949 51.6598 123.091 51.7282C123.232 51.7964 123.401 51.7659 123.51 51.6526L125.93 49.1306C126.825 49.4249 127.709 49.5803 128.507 49.576C129.976 49.5685 131.043 49.0295 131.511 48.0582C131.98 47.0872 131.738 45.9167 130.83 44.7624C130.277 44.0599 129.501 43.3963 128.589 42.8388L137.51 24.3482L146.432 42.8386C145.52 43.3961 144.743 44.0596 144.191 44.7621C143.283 45.9165 143.041 47.0869 143.509 48.0579C143.978 49.0292 145.045 49.5682 146.513 49.5758C147.311 49.58 148.196 49.4245 149.09 49.1304L151.51 51.6524C151.619 51.7656 151.789 51.7961 151.93 51.728C152.072 51.6596 152.153 51.5081 152.132 51.3525L151.664 47.8887C152.451 47.3713 153.123 46.7757 153.617 46.1485C154.524 44.9945 154.766 43.8239 154.298 42.8528ZM148.344 7.43461C148.531 7.55027 148.725 7.66038 148.913 7.76691C149.383 8.03358 149.826 8.28534 150.19 8.62549C150.597 9.00574 150.795 9.34971 150.748 9.59396C150.685 9.92163 150.278 10.1718 149.504 10.3588C149.069 10.464 148.519 10.5668 148.127 10.4264C148.094 10.4144 148.061 10.4008 148.03 10.3858C147.513 10.1364 147.381 9.45924 147.32 8.82977C147.273 8.349 147.264 7.85079 147.256 7.36899C147.252 7.13351 147.247 6.89434 147.239 6.65379C147.551 6.91329 147.912 7.16783 148.344 7.43461ZM127.765 7.36899C127.757 7.85079 127.748 8.34889 127.701 8.82977C127.64 9.45924 127.508 10.1364 126.991 10.3858C126.96 10.4008 126.927 10.4144 126.894 10.4264C126.502 10.5668 125.952 10.464 125.517 10.3588C124.743 10.1718 124.336 9.92163 124.273 9.59396C124.226 9.34971 124.424 9.00574 124.831 8.62549C125.194 8.28546 125.638 8.03358 126.108 7.76691C126.296 7.66038 126.49 7.55027 126.677 7.43461C127.109 7.16783 127.47 6.91329 127.782 6.65379C127.774 6.89434 127.769 7.13351 127.765 7.36899ZM129.55 47.1116C129.404 47.4141 127.802 47.7192 125.55 46.6324C123.297 45.5457 122.539 44.1018 122.685 43.7993C122.808 43.5444 123.966 43.2876 125.676 43.8646L124.788 45.7038L126.75 46.6501L127.637 44.8109C129.153 45.7906 129.673 46.8569 129.55 47.1116ZM149.471 46.6324C147.219 47.7192 145.617 47.4142 145.471 47.1116C145.348 46.8569 145.868 45.7904 147.384 44.811L148.271 46.6502L150.233 45.7039L149.345 43.8647C151.055 43.2877 152.213 43.5445 152.336 43.7994C152.482 44.1017 151.724 45.5456 149.471 46.6324Z" fill="#060D10" stroke="#060D10"/>
<path d="M177.845 44.2728C174.899 44.2728 172.647 43.3631 171.087 41.5437C169.556 39.7243 168.705 37.2262 168.531 34.0495L172.863 32.8799C173.008 35.1325 173.441 36.9519 174.163 38.3381C174.914 39.7243 176.141 40.4174 177.845 40.4174C179.115 40.4174 180.068 40.0708 180.704 39.3777C181.368 38.6557 181.7 37.6306 181.7 36.3021C181.7 34.8582 181.397 33.6597 180.79 32.7066C180.184 31.7536 179.217 30.6996 177.888 29.5444L171.997 24.3461C170.813 23.3065 169.946 22.1946 169.398 21.0106C168.878 19.7976 168.618 18.3248 168.618 16.592C168.618 14.0218 169.354 12.0291 170.827 10.614C172.3 9.19896 174.307 8.49142 176.848 8.49142C179.621 8.49142 181.715 9.22785 183.13 10.7007C184.545 12.1735 185.397 14.455 185.685 17.5451L181.527 18.6713C181.383 16.6209 180.978 15.047 180.314 13.9496C179.679 12.8233 178.523 12.2602 176.848 12.2602C175.607 12.2602 174.654 12.5923 173.989 13.2565C173.325 13.8918 172.993 14.8449 172.993 16.1155C172.993 17.1552 173.166 18.036 173.513 18.758C173.859 19.4511 174.451 20.1586 175.289 20.8806L181.224 26.0789C182.754 27.4362 183.967 28.909 184.862 30.4974C185.787 32.0858 186.249 33.8907 186.249 35.9122C186.249 38.4825 185.469 40.5184 183.909 42.0202C182.35 43.5219 180.328 44.2728 177.845 44.2728ZM198.84 44.2728C195.374 44.2728 192.934 43.2475 191.519 41.1971C190.104 39.1178 189.396 36.2588 189.396 32.62V20.2308C189.396 16.3899 190.089 13.4731 191.475 11.4804C192.862 9.48776 195.316 8.49142 198.84 8.49142C201.987 8.49142 204.24 9.34336 205.597 11.0472C206.983 12.7511 207.677 15.2636 207.677 18.5847V21.3571H203.041V18.8879C203.041 17.2707 202.969 16.0289 202.825 15.1625C202.68 14.2961 202.305 13.603 201.699 13.0832C201.121 12.5634 200.182 12.3035 198.883 12.3035C197.554 12.3035 196.558 12.5923 195.894 13.1699C195.258 13.7186 194.84 14.4983 194.638 15.5091C194.435 16.491 194.334 17.8194 194.334 19.4944V33.3997C194.334 35.1902 194.479 36.5909 194.768 37.6017C195.056 38.6124 195.518 39.3344 196.154 39.7676C196.818 40.2008 197.728 40.4174 198.883 40.4174C200.125 40.4174 201.049 40.1431 201.655 39.5943C202.262 39.0456 202.637 38.2948 202.782 37.3418C202.955 36.3887 203.041 35.0892 203.041 33.4431V30.8439H207.677V33.4431C207.677 36.9375 207.012 39.6232 205.684 41.5004C204.384 43.3487 202.103 44.2728 198.84 44.2728ZM212.34 8.79466H217.235V23.9562H226.245V8.79466H231.14V43.8829H226.245V27.4651H217.235V43.8829H212.34V8.79466ZM245.589 44.2728C242.152 44.2728 239.683 43.3053 238.182 41.3704C236.709 39.4066 235.973 36.5764 235.973 32.8799V19.581C235.973 15.9423 236.723 13.1843 238.225 11.3071C239.726 9.43 242.181 8.49142 245.589 8.49142C248.997 8.49142 251.437 9.44444 252.91 11.3505C254.411 13.2276 255.163 15.9712 255.163 19.581V32.9232C255.163 36.562 254.411 39.3633 252.91 41.3271C251.408 43.2908 248.968 44.2728 245.589 44.2728ZM245.589 40.4174C247.409 40.4174 248.636 39.8832 249.271 38.8146C249.906 37.746 250.224 36.1288 250.224 33.9629V18.5847C250.224 16.4477 249.906 14.8737 249.271 13.863C248.636 12.8233 247.409 12.3035 245.589 12.3035C243.741 12.3035 242.499 12.8233 241.864 13.863C241.228 14.8737 240.911 16.4477 240.911 18.5847V33.9629C240.911 36.1288 241.228 37.746 241.864 38.8146C242.499 39.8832 243.741 40.4174 245.589 40.4174ZM268.941 44.2728C265.504 44.2728 263.035 43.3053 261.533 41.3704C260.061 39.4066 259.324 36.5764 259.324 32.8799V19.581C259.324 15.9423 260.075 13.1843 261.577 11.3071C263.078 9.43 265.533 8.49142 268.941 8.49142C272.348 8.49142 274.789 9.44444 276.262 11.3505C277.763 13.2276 278.514 15.9712 278.514 19.581V32.9232C278.514 36.562 277.763 39.3633 276.262 41.3271C274.76 43.2908 272.32 44.2728 268.941 44.2728ZM268.941 40.4174C270.76 40.4174 271.987 39.8832 272.623 38.8146C273.258 37.746 273.576 36.1288 273.576 33.9629V18.5847C273.576 16.4477 273.258 14.8737 272.623 13.863C271.987 12.8233 270.76 12.3035 268.941 12.3035C267.092 12.3035 265.85 12.8233 265.215 13.863C264.58 14.8737 264.262 16.4477 264.262 18.5847V33.9629C264.262 36.1288 264.58 37.746 265.215 38.8146C265.85 39.8832 267.092 40.4174 268.941 40.4174ZM283.325 8.79466H288.22V40.3741H297.187V43.8829H283.325V8.79466Z" fill="#060D10" stroke="#060D10"/>
</svg>
